:FULLY-SPECIFIED
:FORCE-ALL-JOINTS-BE-3DOF
:DEGREES
2141
root -2.3822 15.321 0.330008 904.315 7.86784 185.975
lfemur -59.7416 12.749 -21.3016
ltibia 59.9613 0 0
lfoot -2.10622 10.6033 0
ltoes -32.1806 0 0
rfemur -15.546 1.50232 30.3453
rtibia 60.2477 0 0
rfoot -28.3302 -8.93787 0
rtoes -27.2319 0 0
lowerback 12.2984 1.47783 2.2019
upperback -2.20485 2.65823 2.79861
thorax -9.25487 1.27543 1.2292
lowerneck -4.00934 -1.38166 -3.86552
upperneck 7.39475 -1.81362 3.7602
head 3.12106 -0.846083 1.82005
lclavicle 2.56462e-14 -4.25585e-15 0
lhumerus 31.095 -18.5448 81.5737
lradius 69.3091 0 0
lwrist -22.3313 0 0
lhand -30.1634 73.971 0
lfingers 7.12502 0 0
lthumb -3.47412 -616.039 0
rclavicle 2.56462e-14 -4.25585e-15 0
rhumerus 3.16029 37.7249 -69.7703
rradius 118.822 0 0
rwrist -62.9604 0 0
rhand -2.64087 -385.239 0
rfingers 7.12502 0 0
rthumb 23.0532 306.171 0
2142
root -2.36495 15.3228 0.0644387 904.254 7.57235 185.843
lfemur -59.1406 12.5893 -21.3325
ltibia 59.8817 0 0
lfoot -2.30272 10.8315 0
ltoes -32.2259 0 0
rfemur -16.0962 1.35927 30.1579
rtibia 60.4687 0 0
rfoot -28.0246 -8.8644 0
rtoes -26.8624 0 0
lowerback 12.3185 1.46322 2.06151
upperback -2.18187 2.61124 2.77299
thorax -9.2395 1.25716 1.29106
lowerneck -4.00858 -1.44205 -3.91174
upperneck 7.40501 -1.89781 3.79573
head 3.12965 -0.889298 1.83281
lclavicle 2.54245e-14 -4.30245e-15 0
lhumerus 30.6519 -18.6211 81.6961
lradius 69.2711 0 0
lwrist -21.8122 0 0
lhand -30.0249 76.3362 0
lfingers 7.12502 0 0
lthumb -3.34066 -613.681 0
rclavicle 2.54245e-14 -4.30245e-15 0
rhumerus 3.16629 37.3858 -69.8049
rradius 118.428 0 0
rwrist -62.5299 0 0
rhand -2.6098 -385.341 0
rfingers 7.12502 0 0
rthumb 23.0824 306.079 0
2143
root -2.3477 15.3246 -0.201131 904.182 7.24853 185.699
lfemur -58.4863 12.4174 -21.3694
ltibia 59.8006 0 0
lfoot -2.52199 11.0812 0
ltoes -32.2686 0 0
rfemur -16.7034 1.20391 29.951
rtibia 60.7179 0 0
rfoot -27.6846 -8.78237 0
rtoes -26.4543 0 0
lowerback 12.3416 1.44639 1.90595
upperback -2.1559 2.55829 2.74532
thorax -9.22222 1.23648 1.36057
lowerneck -4.0095 -1.50673 -3.96132
upperneck 7.41968 -1.98813 3.83299
head 3.14005 -0.935724 1.84614
lclavicle 2.5172e-14 -4.35396e-15 0
lhumerus 30.2001 -18.7101 81.8239
lradius 69.2081 0 0
lwrist -21.2564 0 0
lhand -29.8817 79.0796 0
lfingers 7.12502 0 0
lthumb -3.20261 -610.945 0
rclavicle 2.5172e-14 -4.35396e-15 0
rhumerus 3.14754 37.0166 -69.8508
rradius 118.03 0 0
rwrist -62.0811 0 0
rhand -2.56616 -385.45 0
rfingers 7.12502 0 0
rthumb 23.1236 305.984 0
2144
root -2.33045 15.3265 -0.4667 904.098 6.89554 185.541
lfemur -57.7779 12.2335 -21.4132
ltibia 59.7193 0 0
lfoot -2.76563 11.3528 0
ltoes -32.3069 0 0
rfemur -17.3703 1.0362 29.7235
rtibia 60.9976 0 0
rfoot -27.308 -8.69117 0
rtoes -26.0055 0 0
lowerback 12.3681 1.42708 1.73439
upperback -2.12668 2.49889 2.71563
thorax -9.20288 1.21315 1.43834
lowerneck -4.01253 -1.5755 -4.01412
upperneck 7.43968 -2.08432 3.87167
head 3.15254 -0.98525 1.85989
lclavicle 2.48857e-14 -4.41061e-15 0
lhumerus 29.7468 -18.8135 81.956
lradius 69.1144 0 0
lwrist -20.6658 0 0
lhand -29.7355 82.2467 0
lfingers 7.12502 0 0
lthumb -3.06168 -607.786 0
rclavicle 2.48857e-14 -4.41061e-15 0
rhumerus 3.09759 36.6169 -69.9103
rradius 117.633 0 0
rwrist -61.6187 0 0
rhand -2.50742 -385.563 0
rfingers 7.12502 0 0
rthumb 23.1792 305.886 0
2145
root -2.31319 15.3283 -0.73227 904.002 6.5125 185.371
lfemur -57.0148 12.0378 -21.465
ltibia 59.6392 0 0
lfoot -3.03519 11.6468 0
ltoes -32.3393 0 0
rfemur -18.0995 0.856071 29.4746
rtibia 61.3103 0 0
rfoot -26.8928 -8.59022 0
rtoes -25.5143 0 0
lowerback 12.3982 1.40505 1.54599
upperback -2.09393 2.43252 2.68395
thorax -9.18133 1.18697 1.525
lowerneck -4.01811 -1.64815 -4.06999
upperneck 7.4659 -2.18613 3.91145
head 3.1674 -1.03776 1.87394
lclavicle 2.45624e-14 -4.47265e-15 0
lhumerus 29.2993 -18.9329 82.091
lradius 68.9843 0 0
lwrist -20.0421 0 0
lhand -29.588 85.8828 0
lfingers 7.12502 0 0
lthumb -2.91957 -604.158 0
rclavicle 2.45624e-14 -4.47265e-15 0
rhumerus 3.01002 36.1865 -69.9853
rradius 117.245 0 0
rwrist -61.1472 0 0
rhand -2.43105 -385.681 0
rfingers 7.12502 0 0
rthumb 23.2516 305.786 0
2146
root -2.29594 15.3301 -0.99784 903.89 6.09858 185.187
lfemur -56.1963 11.8307 -21.5254
ltibia 59.5616 0 0
lfoot -3.33226 11.9638 0
ltoes -32.3641 0 0
rfemur -18.8938 0.663473 29.2033
rtibia 61.6583 0 0
rfoot -26.4368 -8.4789 0
rtoes -24.9788 0 0
lowerback 12.4323 1.38004 1.33991
upperback -2.05741 2.3587 2.6503
thorax -9.15741 1.15769 1.62115
lowerneck -4.02669 -1.72449 -4.12881
upperneck 7.49924 -2.29332 3.952
head 3.18492 -1.09315 1.88815
lclavicle 2.4199e-14 -4.54033e-15 0
lhumerus 28.865 -19.0697 82.2278
lradius 68.8125 0 0
lwrist -19.3872 0 0
lhand -29.4411 90.0334 0
lfingers 7.12502 0 0
lthumb -2.77798 -600.015 0
rclavicle 2.4199e-14 -4.54033e-15 0
rhumerus 2.8784 35.7249 -70.0782
rradius 116.873 0 0
rwrist -60.6713 0 0
rhand -2.33452 -385.802 0
rfingers 7.12502 0 0
rthumb 23.3433 305.686 0
2147
root -2.27869 15.332 -1.26341 903.763 5.65292 184.99
lfemur -55.3217 11.6126 -21.5955
ltibia 59.4879 0 0
lfoot -3.6584 12.3044 0
ltoes -32.3797 0 0
rfemur -19.7558 0.458351 28.9085
rtibia 62.0441 0 0
rfoot -25.9377 -8.35662 0
rtoes -24.397 0 0
lowerback 12.4708 1.3518 1.11531
upperback -2.01683 2.27691 2.61472
thorax -9.13096 1.12511 1.72742
lowerneck -4.03871 -1.80429 -4.19043
upperneck 7.54062 -2.40562 3.993
head 3.20536 -1.1513 1.9024
lclavicle 2.37926e-14 -4.61389e-15 0
lhumerus 28.4511 -19.2258 82.3651
lradius 68.5931 0 0
lwrist -18.703 0 0
lhand -29.2965 94.7437 0
lfingers 7.12502 0 0
lthumb -2.63862 -595.312 0
rclavicle 2.37926e-14 -4.61389e-15 0
rhumerus 2.69629 35.2319 -70.191
rradius 116.525 0 0
rwrist -60.1956 0 0
rhand -2.21529 -385.927 0
rfingers 7.12502 0 0
rthumb 23.4567 305.586 0
2148
root -2.26144 15.3338 -1.52898 903.619 5.17466 184.778
lfemur -54.3905 11.3836 -21.6761
ltibia 59.4194 0 0
lfoot -4.01518 12.669 0
ltoes -32.3844 0 0
rfemur -20.6881 0.240649 28.5894
rtibia 62.4701 0 0
rfoot -25.3934 -8.22279 0
rtoes -23.767 0 0
lowerback 12.5139 1.32008 0.871353
upperback -1.97194 2.18664 2.57723
thorax -9.10184 1.089 1.84441
lowerneck -4.05462 -1.88737 -4.25472
upperneck 7.59093 -2.52279 4.03414
head 3.229 -1.21211 1.91654
lclavicle 2.334e-14 -4.69358e-15 0
lhumerus 28.065 -19.4026 82.5017
lradius 68.3208 0 0
lwrist -17.9912 0 0
lhand -29.156 100.059 0
lfingers 7.12502 0 0
lthumb -2.50319 -590.005 0
rclavicle 2.334e-14 -4.69358e-15 0
rhumerus 2.45726 34.7069 -70.3258
rradius 116.207 0 0
rwrist -59.7246 0 0
rhand -2.07085 -386.054 0
rfingers 7.12502 0 0
rthumb 23.5941 305.489 0
2149
root -2.24419 15.3356 -1.79455 903.456 4.66296 184.552
lfemur -53.4019 11.1442 -21.7682
ltibia 59.3575 0 0
lfoot -4.40419 13.0582 0
ltoes -32.3765 0 0
rfemur -21.6936 0.0103123 28.2451
rtibia 62.9387 0 0
rfoot -24.8017 -8.07679 0
rtoes -23.087 0 0
lowerback 12.5621 1.28462 0.607196
upperback -1.92246 2.0874 2.53786
thorax -9.06988 1.04913 1.97276
lowerneck -4.07484 -1.9735 -4.32153
upperneck 7.65107 -2.64457 4.07508
head 3.25612 -1.27545 1.93045
lclavicle 2.28382e-14 -4.77964e-15 0
lhumerus 27.7139 -19.6018 82.6362
lradius 67.9899 0 0
lwrist -17.2537 0 0
lhand -29.0213 106.025 0
lfingers 7.12502 0 0
lthumb -2.37339 -584.046 0
rclavicle 2.28382e-14 -4.77964e-15 0
rhumerus 2.15489 34.1498 -70.4849
rradius 115.926 0 0
rwrist -59.263 0 0
rhand -1.89866 -386.182 0
rfingers 7.12502 0 0
rthumb 23.7581 305.393 0
2150
root -2.22694 15.3375 -2.06012 903.273 4.11695 184.311
lfemur -52.3553 10.8945 -21.8725
ltibia 59.3034 0 0
lfoot -4.82698 13.4726 0
ltoes -32.3545 0 0
rfemur -22.7747 -0.232714 27.8745
rtibia 63.4524 0 0
rfoot -24.1605 -7.91803 0
rtoes -22.355 0 0
lowerback 12.6156 1.24518 0.322002
upperback -1.86813 1.97869 2.49665
thorax -9.03494 1.00529 2.11306
lowerneck -4.09984 -2.06249 -4.39072
upperneck 7.72196 -2.77072 4.11551
head 3.28701 -1.34122 1.944
lclavicle 2.22841e-14 -4.87232e-15 0
lhumerus 27.4051 -19.825 82.7675
lradius 67.5948 0 0
lwrist -16.4923 0 0
lhand -28.8943 112.688 0
lfingers 7.12502 0 0
lthumb -2.25092 -577.391 0
rclavicle 2.22841e-14 -4.87232e-15 0
rhumerus 1.78274 33.5601 -70.6703
rradius 115.69 0 0
rwrist -58.8154 0 0
rhand -1.69618 -386.312 0
rfingers 7.12502 0 0
rthumb 23.9511 305.302 0
2151
root -2.20968 15.3393 -2.32569 903.069 3.53578 184.055
lfemur -51.25 10.6349 -21.99
ltibia 59.2585 0 0
lfoot -5.28514 13.9126 0
ltoes -32.3166 0 0
rfemur -23.9343 -0.488484 27.4767
rtibia 64.0134 0 0
rfoot -23.4676 -7.74592 0
rtoes -21.5692 0 0
lowerback 12.6748 1.2015 0.01493
upperback -1.80869 1.85999 2.45361
thorax -8.99686 0.957247 2.26594
lowerneck -4.13004 -2.15414 -4.46216
upperneck 7.80449 -2.90098 4.15511
head 3.32193 -1.4093 1.95705
lclavicle 2.16746e-14 -4.97186e-15 0
lhumerus 27.1459 -20.0737 82.8944
lradius 67.13 0 0
lwrist -15.7089 0 0
lhand -28.7766 120.091 0
lfingers 7.12502 0 0
lthumb -2.13749 -569.994 0
rclavicle 2.16746e-14 -4.97186e-15 0
rhumerus 1.33438 32.9374 -70.8843
rradius 115.505 0 0
rwrist -58.3864 0 0
rhand -1.46089 -386.441 0
rfingers 7.12502 0 0
rthumb 24.1754 305.215 0
